<svg width="32" height="32" viewBox="0 0 32 32" fill="none" xmlns="http://www.w3.org/2000/svg">
<path d="M1 6.99932C1 5.4082 1.63214 3.88225 2.75736 2.75716C3.88258 1.63207 5.4087 1 7 1H25C26.5913 1 28.1174 1.63207 29.2426 2.75716C30.3679 3.88225 31 5.4082 31 6.99932V24.9973C31 26.5884 30.3679 28.1144 29.2426 29.2394C28.1174 30.3645 26.5913 30.9966 25 30.9966H7C5.4087 30.9966 3.88258 30.3645 2.75736 29.2394C1.63214 28.1144 1 26.5884 1 24.9973V6.99932Z" stroke="white" stroke-width="2" stroke-linecap="round" stroke-linejoin="round"/>
<path d="M10.7499 14.4985C12.821 14.4985 14.4999 12.8197 14.4999 10.7489C14.4999 8.67807 12.821 6.99933 10.7499 6.99933C8.67886 6.99933 6.99992 8.67807 6.99992 10.7489C6.99992 12.8197 8.67886 14.4985 10.7499 14.4985Z" stroke="white" stroke-width="2" stroke-linecap="round" stroke-linejoin="round"/>
<path d="M19.7889 16.9331L6.99992 31H25.1994C26.7378 31 28.2132 30.389 29.301 29.3013C30.3888 28.2136 30.9999 26.7384 30.9999 25.2002V25.0007C30.9999 24.3018 30.7374 24.0333 30.2649 23.5159L24.2199 16.9241C23.9382 16.6168 23.5955 16.3716 23.2137 16.2042C22.8319 16.0367 22.4194 15.9506 22.0024 15.9515C21.5855 15.9523 21.1733 16.0401 20.7922 16.2091C20.4111 16.3781 20.0694 16.6247 19.7889 16.9331V16.9331Z" stroke="white" stroke-width="2" stroke-linecap="round" stroke-linejoin="round"/>
</svg>
